<svg width="707" height="660" viewBox="0 0 707 660" fill="none" xmlns="http://www.w3.org/2000/svg">
<g clip-path="url(#clip0)">
<path d="M296.367 574.071C296.367 574.071 57.7889 702.939 7.52851 520.559C-42.7319 338.179 177.608 487.052 110.524 251.726C43.4389 16.3995 232.181 3.6753 316.231 117.769C400.281 231.862 480.019 202.596 593.759 155.588C707.499 108.579 761.364 349.136 630.942 390.773C500.519 432.409 703.257 548.764 588.528 602.276C473.798 655.788 524.836 518.933 296.367 574.071Z" fill="#E8F3FF"/>
<path d="M322.168 150.923H65.2812V343.553H322.168V150.923Z" fill="#3172B7"/>
<path d="M602.949 150.923H346.062V343.553H602.949V150.923Z" fill="#8142CB"/>
<path d="M321.891 367.57L65.0039 368.314L65.5623 560.944L322.449 560.199L321.891 367.57Z" fill="#60D6DD"/>
<path d="M602.67 366.721L345.783 367.466L346.342 560.095L603.228 559.351L602.67 366.721Z" fill="#E96129"/>
<path d="M231.12 659.677C246.971 659.677 259.82 646.827 259.82 630.977C259.82 615.126 246.971 602.277 231.12 602.277C215.269 602.277 202.42 615.126 202.42 630.977C202.42 646.827 215.269 659.677 231.12 659.677Z" fill="#FF8412"/>
<path d="M334.116 659.677C349.967 659.677 362.816 646.827 362.816 630.977C362.816 615.126 349.967 602.277 334.116 602.277C318.265 602.277 305.416 615.126 305.416 630.977C305.416 646.827 318.265 659.677 334.116 659.677Z" fill="#193FF6"/>
<path d="M434.179 653.958C448.45 653.958 460.019 642.389 460.019 628.117C460.019 613.846 448.45 602.277 434.179 602.277C419.907 602.277 408.338 613.846 408.338 628.117C408.338 642.389 419.907 653.958 434.179 653.958Z" fill="#FF8412"/>
<path d="M229.424 257.947C229.424 257.947 225.749 285.657 213.024 291.807C213.024 291.807 213.024 291.807 213.024 291.878C210.268 293.221 207.087 293.504 203.481 292.373C182.981 285.799 177.255 269.611 177.255 269.611C177.255 269.611 176.124 269.116 174.711 267.985C171.671 265.581 167.43 260.421 170.186 251.373C174.286 238.154 183.193 255.261 183.193 255.261C184.183 260.067 185.597 259.29 187.011 256.25C189.626 250.595 192.171 237.093 192.171 237.093C196.483 244.445 224.971 245.647 224.971 245.647L227.657 253.069L229.424 257.947Z" fill="url(#paint0_linear)"/>
<path d="M174.71 286.435C174.498 287.496 174.215 288.627 173.861 289.687" stroke="#252324" stroke-width="0.2018" stroke-miterlimit="10"/>
<path d="M229.424 257.947L224.97 245.647C224.97 245.647 196.482 244.446 192.17 237.094C192.17 237.094 186.02 268.975 183.193 255.19C183.193 255.19 174.286 238.084 170.186 251.303C167.358 260.28 171.67 265.441 174.71 267.915C174.71 267.915 175.912 273.57 175.488 280.356C175.488 280.356 167.146 285.092 162.693 284.668C162.693 284.668 166.934 276.61 161.632 266.572C156.401 256.534 143.182 216.452 170.044 213.413C170.044 213.413 176.548 201.608 189.767 201.325C202.986 201.113 214.226 195.528 214.226 195.528C214.226 195.528 210.267 202.032 207.369 203.163C207.369 203.163 241.088 207.616 237.624 225.925C237.765 225.996 246.036 246.708 229.424 257.947Z" fill="#B13E2C"/>
<path d="M201.077 316.691C192.595 311.177 181.991 320.861 181.991 320.861C181.991 320.861 168.701 299.513 166.651 291.879C166.369 290.889 166.298 290.111 166.51 289.687C167.995 285.799 175.063 284.81 175.063 284.81C174.993 285.375 174.851 285.87 174.781 286.435C173.438 292.939 194.574 311.248 201.077 316.691Z" fill="white"/>
<path d="M222.072 310.258C219.386 310.541 215.568 312.025 212.034 313.58C210.408 314.287 208.853 315.065 207.51 315.772C208.429 306.229 211.327 296.898 212.458 293.504C216.346 296.12 218.608 299.725 220.022 302.835C221.789 306.865 222.072 310.258 222.072 310.258Z" fill="white"/>
<path d="M213.025 291.878C212.954 292.02 212.742 292.515 212.46 293.504C211.823 295.272 210.763 298.735 209.703 302.977C208.784 306.794 207.936 311.247 207.441 315.842C204.754 317.185 202.846 318.316 202.846 318.316C202.846 318.316 202.775 318.316 202.775 318.246C202.704 318.175 202.704 318.175 202.704 318.175C202.28 317.751 201.856 317.397 201.361 317.044C201.22 316.973 201.149 316.903 201.008 316.761C194.575 311.318 173.439 293.01 174.711 286.506C174.853 285.941 174.923 285.446 174.994 284.88C175.206 283.396 175.348 281.982 175.489 280.568C175.56 279.084 175.56 277.741 175.56 276.397C175.418 271.591 174.711 268.127 174.711 268.127C176.125 269.258 177.256 269.753 177.256 269.753C177.256 269.753 182.982 285.941 203.482 292.515C207.158 293.504 210.339 293.222 213.025 291.878Z" fill="url(#paint1_linear)"/>
<path d="M222.073 310.258L217.054 318.246L212.035 313.58C215.57 312.025 219.387 310.54 222.073 310.258Z" fill="#D4EAF6"/>
<path d="M255.649 343.623H117.168C117.168 310.682 135.971 303.471 145.02 301.563C154.068 299.654 166.651 291.808 166.651 291.808C168.701 299.442 181.991 320.79 181.991 320.79C181.991 320.79 192.594 311.177 201.077 316.62C201.147 316.69 201.289 316.761 201.43 316.902C202.066 317.468 202.491 317.821 202.773 318.034C202.844 318.034 202.844 318.104 202.844 318.104L202.915 318.175C202.915 318.175 204.823 317.115 207.51 315.701C208.853 314.994 210.408 314.216 212.034 313.509L217.053 318.175L222.072 310.187C222.072 310.187 221.789 306.794 220.092 302.765C220.87 303.047 240.946 309.975 244.834 314.216C248.651 318.528 255.649 343.623 255.649 343.623Z" fill="url(#paint2_linear)"/>
<path d="M230.131 518.51C224.334 516.954 219.598 515.399 217.619 513.491C212.317 508.472 215.569 495.748 215.781 494.829C215.781 494.758 215.781 494.758 215.781 494.758C220.376 489.668 224.122 480.903 224.122 468.391C224.122 468.391 228.01 468.532 230.272 462.453C233.595 453.546 232.464 438.065 221.507 444.215C208.782 451.354 174.922 433.258 174.922 433.258C179.163 449.799 166.157 471.148 166.157 471.148C151.1 482.316 168.913 503.029 168.913 503.029C159.088 542.191 142.263 560.217 142.263 560.217H124.025C126.075 551.31 133.71 533.991 140.637 520.56C143.041 515.894 145.303 511.794 147.282 508.613C154.775 496.313 148.272 472.066 143.889 452.98C139.436 433.823 155.341 424.987 155.341 424.987C155.341 424.987 152.443 407.597 177.75 401.73C203.057 395.934 235.857 405.123 239.25 436.934C241.441 458.211 234.019 494.051 230.131 518.51Z" fill="#1E264B"/>
<path d="M228.505 543.463C227.303 540.352 228.01 532.789 229.424 522.892" stroke="#252324" stroke-width="0.2018" stroke-miterlimit="10"/>
<path d="M230.272 462.523C228.01 468.673 224.122 468.461 224.122 468.461C224.122 480.973 220.446 489.668 215.78 494.829C215.78 494.829 215.78 494.829 215.78 494.899C212.387 498.646 208.57 500.413 205.318 500.413C197.896 500.413 190.332 497.091 189.908 496.879C187.363 493.98 182.415 492.284 177.537 489.385C170.468 485.073 166.156 471.148 166.156 471.148C166.156 471.148 168.842 466.765 171.387 460.403C174.427 452.768 177.255 442.306 174.922 433.258C174.922 433.258 206.661 450.294 220.234 444.851C220.658 444.71 221.082 444.497 221.506 444.285C232.463 438.065 233.524 453.616 230.272 462.523Z" fill="url(#paint3_linear)"/>
<path d="M140.637 520.56C133.709 533.92 126.075 551.31 124.025 560.217H106.282C106.211 560.217 118.299 526.922 140.637 520.56Z" fill="#652E8B"/>
<path d="M191.674 501.898C191.462 508.543 187.574 508.755 184.817 517.167C183.616 520.913 181.99 529.679 180.505 538.374C178.667 549.401 177.041 560.217 177.041 560.217H142.191C142.191 560.217 159.016 542.191 168.841 503.029C168.841 503.029 151.098 482.317 166.085 471.148C166.085 471.148 170.397 485.074 177.466 489.386C182.273 492.355 187.221 494.051 189.836 496.879C191.038 498.222 191.745 499.777 191.674 501.898Z" fill="url(#paint4_linear)"/>
<path d="M279.048 560.216H177.043C177.043 560.216 178.598 549.401 180.507 538.373C180.507 538.373 208.5 546.149 229.495 522.892C230.555 521.761 231.615 520.489 232.605 519.216C242.36 521.69 254.024 524.165 259.891 527.628C269.717 533.496 279.048 560.216 279.048 560.216Z" fill="#652E8B"/>
<path d="M232.534 519.216C231.544 520.559 230.484 521.761 229.424 522.892C208.429 546.149 180.436 538.373 180.436 538.373C181.213 533.778 182.061 529.113 182.839 525.225C183.546 521.761 184.253 518.934 184.748 517.166C187.505 508.754 191.392 508.542 191.605 501.897C191.675 499.847 191.039 498.221 189.837 496.949C190.332 497.161 197.825 500.484 205.248 500.484C208.499 500.484 212.317 498.646 215.71 494.97C215.568 495.465 214.508 499.847 214.508 504.371C214.579 507.835 215.286 511.44 217.548 513.561C219.527 515.47 224.334 517.025 230.06 518.58C230.908 518.721 231.686 518.934 232.534 519.216Z" fill="url(#paint5_linear)"/>
<path d="M232.535 519.218V519.146" stroke="#252324" stroke-width="0.2018" stroke-miterlimit="10"/>
<path d="M494.864 472.278C494.864 472.278 492.673 476.732 491.825 482.528C478.04 493.132 462.63 487.123 462.63 487.123C459.166 485.78 456.621 483.165 454.713 479.913C452.097 475.601 450.754 470.158 450.047 465.351C449.835 463.866 449.694 462.452 449.552 461.18C449.34 459.059 449.27 457.151 449.27 455.808C460.014 455.596 481.928 451.92 486.382 441.175C486.382 441.175 494.158 455.878 498.328 456.373C494.016 463.513 494.864 472.278 494.864 472.278Z" fill="url(#paint6_linear)"/>
<path d="M518.05 462.806C517.98 462.948 517.909 463.16 517.768 463.301" stroke="#252324" stroke-width="0.2018" stroke-miterlimit="10"/>
<path d="M518.05 462.806C513.667 462.028 510.557 462.877 510.557 462.877C509.496 462.523 508.507 461.746 507.588 460.685C511.334 452.061 508.931 449.234 503.276 452.98C502.851 451.92 502.639 451.284 502.639 451.284C500.801 452.768 499.388 454.535 498.257 456.373C494.086 455.878 486.31 441.175 486.31 441.175C481.857 451.99 459.943 455.596 449.198 455.808C446.794 455.878 444.956 455.737 443.967 455.454C438.736 454.04 436.474 443.154 439.372 428.592C442.341 414.03 458.317 412.192 458.317 412.192C458.317 412.192 463.548 393.883 495.288 402.083C526.815 410.142 529.007 440.963 518.05 462.806Z" fill="#FEDC97"/>
<path d="M507.587 460.615C505.608 458.353 504.053 454.889 503.275 452.909C508.931 449.163 511.263 452.061 507.587 460.615Z" fill="url(#paint7_linear)"/>
<path d="M510.698 250.383C510.344 257.028 504.548 258.23 504.548 258.23C503.911 260.421 500.943 266.501 495.924 271.237C495.499 271.661 495.075 272.015 494.651 272.439C490.056 276.256 483.906 278.801 476.413 276.68C470.546 274.984 466.517 272.297 463.689 269.399V269.328C458.458 263.956 457.68 258.018 457.68 258.018C457.68 258.018 451.177 256.816 451.884 247.273C452.591 237.73 457.68 245.364 457.68 245.364L457.822 240.982L457.892 239.002C457.892 239.002 466.304 234.69 467.718 228.187C467.718 228.187 475.989 229.318 477.191 225.925C477.191 225.925 480.725 231.156 486.027 230.802C486.38 230.802 486.734 230.732 487.087 230.661C487.229 230.59 487.441 230.59 487.653 230.52C488.36 230.308 489.137 230.025 489.915 229.601C490.268 229.389 490.622 229.177 491.046 228.894C491.046 228.894 494.58 237.589 501.155 237.659C501.155 237.659 501.013 239.921 501.367 241.971C501.791 244.233 502.993 246.213 505.961 243.951C507.234 242.961 511.051 243.668 510.698 250.383Z" fill="url(#paint8_linear)"/>
<path d="M494.933 287.707C483.905 302.128 472.595 304.672 472.595 304.672C472.595 304.672 460.719 293.786 459.941 287.495C461.921 285.798 463.122 283.678 463.829 281.557C464.041 280.921 464.183 280.214 464.324 279.578C464.89 276.326 464.536 273.215 464.112 271.307C463.9 270.246 463.688 269.61 463.617 269.398C466.445 272.296 470.474 275.053 476.341 276.679C483.764 278.8 489.985 276.255 494.579 272.438C494.579 272.438 494.226 273.215 493.802 274.488C493.166 276.609 492.388 280.002 492.812 283.112C493.095 284.738 493.66 286.434 494.933 287.707Z" fill="url(#paint9_linear)"/>
<path d="M520.382 235.821C520.382 235.821 519.039 239.568 519.181 250.666C519.322 261.765 513.03 262.825 511.687 264.875C510.274 266.925 503.629 267.632 501.579 269.328C499.599 271.025 496.136 271.237 495.853 271.237C500.943 266.501 503.911 260.421 504.477 258.23C504.477 258.23 510.274 257.028 510.627 250.383C510.98 243.739 507.163 242.961 505.679 244.092C500.024 248.263 500.801 237.801 500.801 237.801C494.227 237.659 490.693 229.035 490.693 229.035C482.705 234.761 476.908 226.066 476.908 226.066C475.777 229.459 467.436 228.328 467.436 228.328C466.092 234.832 457.61 239.144 457.61 239.144L457.468 245.435C457.468 245.435 452.379 237.73 451.672 247.344C450.965 256.887 457.468 258.089 457.468 258.089C457.468 258.089 458.246 263.956 463.477 269.399C463.477 269.399 463.477 269.399 463.477 269.47C463.548 269.611 463.76 270.318 463.972 271.378C454.287 270.954 454.57 263.602 454.57 263.602C451.318 262.966 451.106 255.897 449.056 253.565C447.006 251.161 446.865 247.415 447.148 242.608C447.501 237.801 444.603 233.418 444.391 227.268C444.249 221.118 451.53 217.866 451.53 217.866C452.52 210.727 458.741 208.323 465.598 204.718C472.455 201.113 479.453 205.425 479.453 205.425C492.601 199.133 497.408 207.828 497.408 207.828C506.456 205.778 513.455 220.27 513.455 220.27C523.493 220.128 520.382 235.821 520.382 235.821Z" fill="#1E264B"/>
<path d="M459.871 287.495C459.801 287 459.801 286.505 459.871 286.081" stroke="#252324" stroke-width="0.2018" stroke-miterlimit="10"/>
<path d="M472.597 304.673C472.597 304.673 453.581 299.442 448.138 291.383C446.795 289.474 446.3 287.354 447.007 285.162C450.188 275.054 461.64 278.517 464.326 279.507C463.831 282.335 462.559 285.233 459.943 287.495C460.721 293.786 472.597 304.673 472.597 304.673Z" fill="#D7712C"/>
<path d="M496.56 285.446C495.994 286.223 495.429 287.001 494.863 287.708" stroke="#252324" stroke-width="0.2018" stroke-miterlimit="10"/>
<path d="M506.527 291.878C503.699 298.24 490.975 302.34 472.596 304.673C472.596 304.673 483.906 302.057 494.934 287.707C493.732 286.435 493.096 284.809 492.884 283.042C492.884 283.042 504.123 277.316 506.88 286.718C507.375 288.555 507.234 290.252 506.527 291.878Z" fill="#D7712C"/>
<path d="M436.686 231.368V307.218L393.424 316.266V240.416L416.257 235.609L419.155 235.044L436.686 231.368Z" fill="white"/>
<path d="M418.589 244.233C415.832 250.737 398.23 250.737 396.746 248.121C395.261 245.506 393.423 246.849 393.423 246.849C393.423 246.849 388.758 246.637 386.92 243.173C385.082 239.709 388.546 235.75 391.232 233.488C393.635 231.438 403.956 231.721 408.763 232.287C409.328 232.357 409.823 232.428 410.247 232.499C411.944 232.781 414.418 233.912 416.256 235.609C418.589 237.73 420.073 240.628 418.589 244.233Z" fill="url(#paint10_linear)"/>
<path d="M419.155 235.043L416.257 235.68C414.348 233.983 411.945 232.852 410.248 232.569C409.824 232.499 409.4 232.428 408.764 232.357L422.902 229.035C422.902 228.964 423.962 231.792 419.155 235.043Z" fill="url(#paint11_linear)"/>
<path d="M393.425 246.848V257.098C387.416 258.3 383.104 256.109 380.701 254.271C380.63 254.2 380.63 254.2 380.559 254.129C379.216 253.14 378.58 252.291 378.58 252.291C378.58 252.291 378.085 243.526 380.63 238.012C383.175 232.498 391.375 233.417 391.375 233.417C388.618 235.679 385.225 239.709 387.063 243.102C388.901 246.495 393.425 246.848 393.425 246.848Z" fill="#D7712C"/>
<path d="M427.143 343.623C427.143 343.623 428.062 329.485 422.972 326.516C417.882 323.547 378.65 326.304 373.843 314.923C369.672 305.026 378.296 264.874 380.7 254.271C383.103 256.038 387.415 258.3 393.424 257.099V316.266L436.686 307.147V292.656L448.138 291.383C453.581 299.442 472.596 304.673 472.596 304.673C491.046 302.269 503.7 298.24 506.527 291.878C507.093 292.019 517.909 295.271 524.341 298.947C530.986 302.693 530.986 343.694 530.986 343.694H427.143V343.623Z" fill="url(#paint12_linear)"/>
<path d="M552.901 473.339C546.751 469.592 530.916 469.592 530.916 469.592C526.463 465.209 521.726 463.442 517.98 462.806C513.597 462.028 510.557 462.877 510.557 462.877C509.497 462.523 508.507 461.746 507.588 460.685C505.609 458.423 504.054 454.959 503.276 452.98C502.852 451.92 502.64 451.283 502.64 451.283C500.802 452.768 499.388 454.535 498.257 456.373C494.016 463.583 494.864 472.349 494.864 472.349C494.864 472.349 492.673 476.802 491.825 482.599C491.542 484.366 491.4 486.275 491.471 488.183C491.542 489.597 491.683 491.082 492.037 492.496C494.299 502.321 506.74 507.411 512.113 508.33C516.849 509.108 522.999 508.33 526.675 504.301C527.169 503.806 527.594 503.17 527.947 502.534C531.269 496.949 535.582 491.152 536.288 487.689C536.995 484.296 536.076 481.892 536.076 481.892C538.551 477.156 552.901 473.339 552.901 473.339ZM517.273 497.515C517.273 497.515 515.718 495.959 516.778 492.99L521.585 496.313C521.514 496.313 518.192 497.727 517.273 497.515Z" fill="url(#paint13_linear)"/>
<path d="M529.29 528.053C528.442 529.537 527.452 530.88 526.392 532.153C524.908 533.92 523.282 535.475 521.585 536.536C520.101 537.455 518.616 538.091 517.132 538.303C515.152 538.586 513.244 538.091 511.547 536.606C507.023 532.789 513.102 526.003 515.718 519.712C515.718 519.712 493.239 506.846 486.594 506.705C480.444 506.563 471.183 520.843 474.859 528.124C467.083 533.637 456.763 539.858 455.278 534.839C453.794 529.749 461.075 521.408 468.497 513.067C468.497 513.067 468.497 513.067 468.568 513.067C472.738 508.472 476.909 503.877 479.737 499.848C480.02 499.494 480.232 499.141 480.444 498.787C487.795 487.477 491.471 488.043 491.471 488.043C491.542 489.456 491.683 490.941 492.037 492.355C494.299 502.18 506.74 507.27 512.113 508.189C516.849 508.967 522.999 508.189 526.675 504.16C526.604 504.23 533.885 520.348 529.29 528.053Z" fill="url(#paint14_linear)"/>
<path d="M521.515 496.313C521.515 496.313 518.192 497.797 517.273 497.515C517.273 497.515 515.718 495.959 516.778 492.99L521.515 496.313Z" fill="#C0C1C2"/>
<path d="M517.132 538.303C513.527 539.928 510.205 541.766 507.943 543.109L503.631 529.961C503.631 529.961 490.341 534.132 481.646 532.435C479.455 532.011 477.546 531.234 476.203 529.961C475.637 529.466 475.213 528.83 474.931 528.194C471.255 520.842 480.515 506.634 486.665 506.775C493.31 506.916 515.789 519.782 515.789 519.782C513.174 526.073 507.094 532.859 511.619 536.677C513.315 538.091 515.224 538.585 517.132 538.303Z" fill="url(#paint15_linear)"/>
<path d="M527.453 535.122C525.686 535.334 523.636 535.829 521.586 536.536C523.282 535.475 524.908 533.92 526.393 532.153L527.453 535.122Z" fill="url(#paint16_linear)"/>
<path d="M452.167 499.423C451.813 499.918 451.389 500.272 450.895 500.554" stroke="#252324" stroke-width="0.2018" stroke-miterlimit="10"/>
<path d="M491.823 482.529C491.752 482.741 491.752 483.024 491.752 483.236C491.54 484.791 491.47 486.417 491.47 488.113C491.47 488.113 487.794 487.619 480.442 498.858C480.23 499.212 479.947 499.565 479.735 499.919C461.002 502.322 454.428 500.767 452.166 499.424C452.873 498.505 453.368 497.162 453.792 495.677C455.347 489.669 454.782 480.408 454.782 479.913C456.69 483.165 459.235 485.781 462.699 487.124C462.628 487.053 477.968 493.132 491.823 482.529Z" fill="url(#paint17_linear)"/>
<path d="M452.167 499.423C450.965 498.787 450.895 498.151 450.895 498.151" stroke="#252324" stroke-width="0.2018" stroke-miterlimit="10"/>
<path d="M481.646 532.435C479.808 540.989 476.768 552.653 472.809 560.217H391.799C391.799 560.217 406.149 519.923 409.825 513.278C413.501 506.704 441.706 502.816 441.706 502.816C441.352 506.139 442.271 509.391 443.756 510.875C446.159 513.279 462.701 515.823 468.568 513.208C461.145 521.549 453.864 529.891 455.349 534.98C456.833 539.999 467.154 533.779 474.93 528.265C475.283 528.901 475.708 529.537 476.202 530.032C477.546 531.234 479.383 532.011 481.646 532.435Z" fill="url(#paint18_linear)"/>
<path d="M511.335 560.217H472.738C476.768 552.653 479.737 540.989 481.575 532.436C490.269 534.132 503.559 529.961 503.559 529.961L507.871 543.11C506.104 544.17 505.044 544.877 505.044 544.877L511.335 560.217Z" fill="url(#paint19_linear)"/>
<path d="M539.54 560.217H511.334L505.043 544.877C505.043 544.877 506.103 544.17 507.871 543.11C510.133 541.766 513.526 539.929 517.06 538.303C518.545 538.091 520.029 537.454 521.514 536.535C523.564 535.829 525.543 535.334 527.381 535.122C528.583 534.98 529.784 535.051 530.774 535.263L539.54 560.217Z" fill="#3172B7"/>
<path opacity="0.5" d="M213.023 291.878C212.953 292.02 212.74 292.514 212.458 293.504C211.821 295.271 210.761 298.735 209.701 302.977C208.499 303.047 207.156 303.047 205.742 302.835C191.392 301.209 180.577 285.445 175.487 276.256C175.346 271.449 174.639 267.985 174.639 267.985C176.052 269.116 177.184 269.611 177.184 269.611C177.184 269.611 182.909 285.799 203.409 292.373C207.156 293.504 210.337 293.221 213.023 291.878Z" fill="#BA7D79"/>
<path d="M454.147 493.839C451.814 493.485 446.3 493.061 443.756 496.808C442.766 498.292 441.635 500.837 441.211 502.816C437.535 503.382 413.147 507.128 409.825 513.208C408.481 514.763 401.13 511.582 401.13 508.471C401.13 505.361 409.825 508.613 413.006 503.806C416.187 498.999 399.574 502.463 395.262 497.444C390.95 492.425 394.768 490.658 413.5 491.789C432.163 492.92 450.047 465.28 450.047 465.28C450.754 470.087 452.168 475.53 454.713 479.842C454.713 480.408 455.137 487.971 454.147 493.839Z" fill="#FEDC97"/>
<path d="M479.735 499.918C476.908 503.948 472.737 508.472 468.566 513.137C468.566 513.137 468.566 513.137 468.496 513.137C462.558 515.753 446.016 513.208 443.683 510.805C442.199 509.32 441.28 506.139 441.634 502.746C441.634 502.746 441.492 502.746 441.139 502.817C441.563 500.837 442.623 498.292 443.683 496.808C446.228 493.061 451.742 493.486 454.075 493.839C453.651 496.101 453.085 498.151 452.096 499.424C454.428 500.767 461.002 502.322 479.735 499.918Z" fill="#2F4E5C"/>
<path opacity="0.5" d="M215.781 494.899C215.64 495.394 214.579 499.777 214.579 504.301C210.974 508.331 206.591 511.512 202.35 511.936C191.181 513.067 183.688 527.629 183.688 527.629C183.688 527.629 183.334 526.781 182.91 525.155C183.617 521.691 184.324 518.863 184.819 517.096C187.576 508.684 191.464 508.472 191.676 501.827C191.746 499.777 191.11 498.151 189.908 496.879C190.403 497.091 197.896 500.413 205.319 500.413C208.571 500.413 212.388 498.575 215.781 494.899Z" fill="#BA7D79"/>
<path opacity="0.5" d="M491.826 482.529C491.755 482.741 491.755 483.024 491.755 483.236C481.435 498.434 463.762 497.656 453.795 495.677C455.35 489.669 454.785 480.408 454.785 479.913C456.693 483.165 459.238 485.781 462.702 487.124C462.631 487.053 477.971 493.132 491.826 482.529Z" fill="#BA7D79"/>
<path opacity="0.5" d="M498.256 456.303C490.268 457.575 485.249 450.435 485.249 450.435C472.737 459.554 459.235 461.887 449.48 461.18C449.268 459.06 449.197 457.151 449.197 455.808C459.942 455.596 481.856 451.92 486.309 441.175C486.309 441.104 494.085 455.808 498.256 456.303Z" fill="#BA7D79"/>
<path d="M504.902 469.522C504.902 469.522 502.428 472.42 494.864 472.278C494.864 472.278 494.016 463.513 498.257 456.303C499.318 454.465 500.731 452.697 502.64 451.213C502.64 451.213 502.569 452.061 502.499 453.475C502.287 456.939 502.216 463.725 503.912 467.684C504.125 468.39 504.478 469.027 504.902 469.522Z" fill="#C0C1C2"/>
<path d="M507.729 490.799C507.658 490.799 507.658 490.799 507.587 490.728C507.517 490.658 499.953 484.72 489.208 484.578C489.067 484.578 488.996 484.437 488.996 484.366C488.996 484.225 489.067 484.084 489.208 484.154C500.094 484.296 507.8 490.375 507.87 490.446C507.941 490.516 508.012 490.658 507.941 490.799C507.87 490.728 507.8 490.799 507.729 490.799Z" fill="#2F4E5C"/>
<path d="M506.315 495.464C506.244 495.464 506.173 495.464 506.173 495.394C506.103 495.323 501.013 490.799 489.985 490.233C489.844 490.233 489.773 490.092 489.773 489.951C489.773 489.809 489.915 489.739 489.985 489.739C501.225 490.304 506.456 494.97 506.527 495.04C506.598 495.111 506.598 495.252 506.527 495.394C506.456 495.464 506.386 495.464 506.315 495.464Z" fill="#2F4E5C"/>
<path d="M492.955 498.433C492.884 498.433 492.743 498.363 492.743 498.292C492.672 498.151 492.743 498.009 492.884 498.009C497.479 496.171 504.972 497.939 505.255 498.009C505.396 498.009 505.467 498.151 505.396 498.292C505.396 498.433 505.255 498.504 505.113 498.504C505.043 498.504 497.479 496.737 493.025 498.504C493.025 498.433 493.025 498.433 492.955 498.433Z" fill="#2F4E5C"/>
<path d="M538.903 499.07H538.832C531.834 496.242 525.613 497.586 525.543 497.656C525.401 497.656 525.26 497.586 525.26 497.444C525.26 497.303 525.33 497.161 525.472 497.161C525.543 497.161 531.905 495.748 539.044 498.646C539.186 498.717 539.256 498.858 539.186 498.929C539.115 498.999 539.044 499.07 538.903 499.07Z" fill="#2F4E5C"/>
<path d="M534.732 503.028C534.662 503.028 534.662 503.028 534.591 502.958C531.975 500.908 524.482 501.402 524.412 501.402C524.341 501.402 524.2 501.332 524.129 501.19C524.129 501.049 524.2 500.978 524.341 500.908C524.624 500.908 532.117 500.413 534.874 502.533C534.944 502.604 535.015 502.745 534.944 502.887C534.874 502.958 534.803 503.028 534.732 503.028Z" fill="#2F4E5C"/>
<path d="M531.48 506.28C531.409 506.28 531.338 506.28 531.338 506.21C529.925 505.079 523.492 504.584 523.421 504.584C523.28 504.584 523.209 504.442 523.209 504.301C523.209 504.16 523.35 504.089 523.492 504.089C523.775 504.089 530.137 504.654 531.621 505.856C531.692 505.927 531.762 506.068 531.692 506.21C531.621 506.28 531.55 506.28 531.48 506.28Z" fill="#2F4E5C"/>
<path opacity="0.5" d="M494.58 272.438C494.58 272.438 494.226 273.215 493.802 274.488C491.187 277.81 485.885 282.759 476.483 284.102C470.899 284.879 466.728 283.536 463.759 281.557C463.971 280.921 464.112 280.214 464.254 279.578C464.819 276.326 464.466 273.215 464.042 271.307C463.83 270.246 463.618 269.61 463.547 269.398C466.374 272.296 470.404 275.053 476.271 276.679C483.835 278.8 489.985 276.255 494.58 272.438Z" fill="#D27872"/>
<path opacity="0.5" d="M501.086 242.042C498.682 239.073 497.48 241.052 492.886 238.649C489.846 237.094 489.422 233.701 489.422 231.58C484.544 237.801 470.477 232.358 470.477 232.358C468.992 236.458 460.863 239.921 457.611 241.123L457.682 239.144C457.682 239.144 466.094 234.832 467.508 228.328C467.508 228.328 475.779 229.459 476.98 226.066C476.98 226.066 480.515 231.297 485.817 230.944C486.17 230.944 486.523 230.873 486.877 230.802C487.018 230.732 487.23 230.732 487.442 230.661C488.149 230.449 488.927 230.166 489.704 229.742C490.058 229.53 490.411 229.318 490.836 229.035C490.836 229.035 494.37 237.73 500.944 237.801C500.873 237.73 500.732 239.992 501.086 242.042Z" fill="#BA7D79"/>
<path d="M220.235 444.851C208.501 455.172 181.78 442.872 181.78 442.872C180.508 450.435 172.025 459.696 171.389 460.403C174.428 452.768 177.256 442.306 174.923 433.258C174.923 433.258 206.663 450.294 220.235 444.851Z" fill="#BA7D79"/>
<path opacity="0.5" d="M227.656 253.14C224.758 247.626 194.574 244.586 194.574 244.586C192.17 251.514 187.01 256.25 187.01 256.25C189.625 250.595 192.17 237.093 192.17 237.093C196.482 244.445 224.97 245.647 224.97 245.647L227.656 253.14Z" fill="#BA7D79"/>
<path d="M377.448 361.436V400.811C377.448 404.557 374.409 407.526 370.733 407.526H298.488L275.16 421.452L283.996 397.912V361.366C283.996 357.619 287.036 354.65 290.712 354.65H370.662C374.409 354.721 377.448 357.69 377.448 361.436Z" fill="#1E264B"/>
<path d="M367.835 372.111H297.074C296.65 372.111 296.367 371.758 296.367 371.404V368.93C296.367 368.506 296.721 368.223 297.074 368.223H367.835C368.259 368.223 368.541 368.577 368.541 368.93V371.404C368.612 371.828 368.259 372.111 367.835 372.111Z" fill="white"/>
<path d="M367.835 388.087H297.074C296.65 388.087 296.367 387.734 296.367 387.381V384.906C296.367 384.482 296.721 384.199 297.074 384.199H367.835C368.259 384.199 368.541 384.553 368.541 384.906V387.381C368.612 387.805 368.259 388.087 367.835 388.087Z" fill="white"/>
<path d="M571.898 164.346H556.647C554.636 164.346 552.99 165.992 552.99 168.004V180.328C552.99 182.34 554.636 183.985 556.647 183.985H571.898C573.909 183.985 575.555 182.34 575.555 180.328V168.004C575.555 165.956 573.909 164.346 571.898 164.346Z" fill="white"/>
<path d="M583.71 166.358C583.49 166.394 583.271 166.504 583.088 166.614L577.383 169.905V178.39L583.125 181.681C584.185 182.303 585.502 181.937 586.123 180.877C586.306 180.547 586.416 180.182 586.416 179.779V168.479C586.416 167.126 585.136 166.029 583.71 166.358Z" fill="white"/>
<path d="M109.118 404.672C108.071 403.638 106.765 403.638 105.724 404.672C104.931 405.459 104.137 406.245 103.357 407.046C103.144 407.266 102.964 407.312 102.704 407.166C102.19 406.886 101.644 406.659 101.15 406.352C98.8499 404.905 96.923 403.045 95.216 400.951C94.3692 399.911 93.6158 398.798 93.089 397.544C92.9823 397.291 93.0023 397.124 93.209 396.917C94.0025 396.151 94.7759 395.364 95.5561 394.577C96.6429 393.483 96.6429 392.203 95.5494 391.103C94.9293 390.476 94.3092 389.863 93.6891 389.236C93.049 388.596 92.4156 387.949 91.7688 387.316C90.722 386.296 89.4151 386.296 88.3749 387.322C87.5748 388.109 86.808 388.916 85.9946 389.69C85.2411 390.403 84.861 391.276 84.781 392.297C84.6543 393.957 85.0611 395.524 85.6345 397.051C86.808 400.211 88.595 403.018 90.762 405.592C93.6891 409.073 97.183 411.826 101.27 413.813C103.111 414.707 105.018 415.394 107.091 415.507C108.518 415.587 109.758 415.227 110.752 414.113C111.432 413.353 112.199 412.66 112.919 411.933C113.986 410.853 113.992 409.546 112.932 408.479C111.665 407.206 110.392 405.939 109.118 404.672Z" fill="white"/>
<path d="M107.845 399.357L110.305 398.937C109.919 396.677 108.852 394.63 107.232 393.003C105.518 391.29 103.351 390.209 100.964 389.876L100.617 392.35C102.464 392.61 104.144 393.443 105.471 394.77C106.725 396.024 107.545 397.611 107.845 399.357Z" fill="white"/>
<path d="M111.692 388.663C108.851 385.822 105.257 384.029 101.29 383.475L100.943 385.949C104.371 386.429 107.478 387.982 109.931 390.43C112.258 392.757 113.785 395.697 114.339 398.931L116.799 398.511C116.152 394.764 114.385 391.363 111.692 388.663Z" fill="white"/>
<circle cx="590.717" cy="162.796" r="2.58406" fill="#FF0000"/>
<circle cx="576.246" cy="383.992" r="7.75219" fill="white"/>
<path d="M591.85 410.981H560.61C559.824 410.981 559.191 410.348 559.191 409.562C559.191 404.924 561 400.577 564.275 397.322C566.389 395.222 569.373 394.019 572.454 394.019H580.006C583.094 394.019 586.071 395.222 588.185 397.322C591.46 400.577 593.268 404.924 593.268 409.562C593.268 410.348 592.636 410.981 591.85 410.981ZM562.098 408.144H590.361C590.042 404.805 588.581 401.718 586.182 399.339C584.596 397.768 582.343 396.863 580.006 396.863H572.454C570.11 396.863 567.864 397.768 566.278 399.339C563.879 401.718 562.418 404.805 562.098 408.144V408.144Z" fill="white"/>
<path d="M575.73 395.879C564.567 394.225 561.087 403.803 560.742 408.799H591.751C590.511 395.982 580.553 394.845 575.73 395.879Z" fill="white"/>
<path d="M97.1602 191.22C99.2133 191.22 100.97 190.489 102.432 189.027C103.894 187.566 104.625 185.808 104.625 183.755V171.812C104.625 169.759 103.894 168.001 102.432 166.539C100.97 165.078 99.2133 164.346 97.1602 164.346C95.1073 164.346 93.3501 165.078 91.8882 166.539C90.4262 168.001 89.6953 169.759 89.6953 171.812V183.755C89.6953 185.808 90.4265 187.566 91.8882 189.027C93.3498 190.489 95.1073 191.22 97.1602 191.22Z" fill="white"/>
<path d="M110.155 179.72C109.86 179.424 109.509 179.276 109.105 179.276C108.701 179.276 108.351 179.424 108.055 179.72C107.76 180.015 107.612 180.365 107.612 180.769V183.755C107.612 186.633 106.59 189.094 104.545 191.139C102.5 193.184 100.039 194.206 97.1615 194.206C94.2843 194.206 91.8233 193.184 89.7781 191.139C87.7331 189.094 86.7107 186.633 86.7107 183.755V180.769C86.7107 180.365 86.5629 180.015 86.2676 179.72C85.972 179.424 85.6225 179.276 85.2179 179.276C84.8133 179.276 84.4633 179.424 84.168 179.72C83.8723 180.015 83.7246 180.365 83.7246 180.769V183.755C83.7246 187.192 84.8718 190.182 87.1654 192.725C89.4592 195.267 92.2935 196.725 95.6685 197.098V200.178H89.6966C89.2923 200.178 88.9424 200.326 88.647 200.621C88.3514 200.917 88.2036 201.267 88.2036 201.671C88.2036 202.075 88.3514 202.425 88.647 202.721C88.9424 203.016 89.2923 203.164 89.6966 203.164H104.626C105.03 203.164 105.381 203.016 105.676 202.721C105.972 202.426 106.119 202.075 106.119 201.671C106.119 201.267 105.972 200.917 105.676 200.621C105.381 200.326 105.03 200.178 104.626 200.178H98.6549V197.098C102.029 196.725 104.863 195.267 107.157 192.725C109.451 190.182 110.599 187.192 110.599 183.755V180.769C110.599 180.365 110.451 180.015 110.155 179.72Z" fill="white"/>
</g>
<defs>
<linearGradient id="paint0_linear" x1="199.382" y1="293.085" x2="199.382" y2="237.146" gradientUnits="userSpaceOnUse">
<stop stop-color="#FFAB95"/>
<stop offset="1" stop-color="#D58680"/>
</linearGradient>
<linearGradient id="paint1_linear" x1="193.868" y1="318.223" x2="193.868" y2="267.967" gradientUnits="userSpaceOnUse">
<stop stop-color="#E2B4A8"/>
<stop offset="1" stop-color="#D58680"/>
</linearGradient>
<linearGradient id="paint2_linear" x1="186.429" y1="343.619" x2="186.429" y2="291.849" gradientUnits="userSpaceOnUse">
<stop stop-color="#2A70C2"/>
<stop offset="1" stop-color="#21B6D3"/>
</linearGradient>
<linearGradient id="paint3_linear" x1="199.004" y1="500.406" x2="199.004" y2="433.283" gradientUnits="userSpaceOnUse">
<stop stop-color="#FFDCD2"/>
<stop offset="1" stop-color="#D58680"/>
</linearGradient>
<linearGradient id="paint4_linear" x1="166.938" y1="560.188" x2="166.938" y2="471.138" gradientUnits="userSpaceOnUse">
<stop stop-color="#FFE2DB"/>
<stop offset="1" stop-color="#D58680"/>
</linearGradient>
<linearGradient id="paint5_linear" x1="206.516" y1="539.608" x2="206.516" y2="494.866" gradientUnits="userSpaceOnUse">
<stop stop-color="#FCD3C8"/>
<stop offset="1" stop-color="#D58680"/>
</linearGradient>
<linearGradient id="paint6_linear" x1="473.724" y1="488.812" x2="473.724" y2="441.084" gradientUnits="userSpaceOnUse">
<stop stop-color="#F9E4DF"/>
<stop offset="1" stop-color="#D58680"/>
</linearGradient>
<linearGradient id="paint7_linear" x1="503.24" y1="455.968" x2="509.363" y2="455.968" gradientUnits="userSpaceOnUse">
<stop stop-color="#E2B4A8"/>
<stop offset="1" stop-color="#D58680"/>
</linearGradient>
<linearGradient id="paint8_linear" x1="481.202" y1="277.433" x2="481.202" y2="225.992" gradientUnits="userSpaceOnUse">
<stop stop-color="#FBA28B"/>
<stop offset="1" stop-color="#D58680"/>
</linearGradient>
<linearGradient id="paint9_linear" x1="477.402" y1="304.671" x2="477.402" y2="269.366" gradientUnits="userSpaceOnUse">
<stop stop-color="#F5A28C"/>
<stop offset="1" stop-color="#D58680"/>
</linearGradient>
<linearGradient id="paint10_linear" x1="386.403" y1="240.796" x2="419.161" y2="240.796" gradientUnits="userSpaceOnUse">
<stop stop-color="#E2B4A8"/>
<stop offset="1" stop-color="#D58680"/>
</linearGradient>
<linearGradient id="paint11_linear" x1="408.805" y1="232.288" x2="423.029" y2="232.288" gradientUnits="userSpaceOnUse">
<stop stop-color="#E2B4A8"/>
<stop offset="1" stop-color="#D58680"/>
</linearGradient>
<linearGradient id="paint12_linear" x1="451.83" y1="343.619" x2="451.83" y2="254.282" gradientUnits="userSpaceOnUse">
<stop stop-color="#F9766C"/>
<stop offset="1" stop-color="#F9C021"/>
</linearGradient>
<linearGradient id="paint13_linear" x1="491.432" y1="479.874" x2="552.922" y2="479.874" gradientUnits="userSpaceOnUse">
<stop stop-color="#E5E6E7"/>
<stop offset="1" stop-color="#BCBDBF"/>
</linearGradient>
<linearGradient id="paint14_linear" x1="455.146" y1="513.234" x2="530.827" y2="513.234" gradientUnits="userSpaceOnUse">
<stop stop-color="#E5E6E7"/>
<stop offset="1" stop-color="#BCBDBF"/>
</linearGradient>
<linearGradient id="paint15_linear" x1="474.049" y1="524.891" x2="517.157" y2="524.891" gradientUnits="userSpaceOnUse">
<stop stop-color="#E2B4A8"/>
<stop offset="1" stop-color="#D58680"/>
</linearGradient>
<linearGradient id="paint16_linear" x1="521.585" y1="534.341" x2="527.45" y2="534.341" gradientUnits="userSpaceOnUse">
<stop stop-color="#E2B4A8"/>
<stop offset="1" stop-color="#D58680"/>
</linearGradient>
<linearGradient id="paint17_linear" x1="471.969" y1="501.177" x2="471.969" y2="479.897" gradientUnits="userSpaceOnUse">
<stop stop-color="#E2B4A8"/>
<stop offset="1" stop-color="#D58680"/>
</linearGradient>
<linearGradient id="paint18_linear" x1="436.713" y1="560.187" x2="454.5" y2="397.5" gradientUnits="userSpaceOnUse">
<stop stop-color="#2D70BF"/>
<stop offset="1" stop-color="#4A818C"/>
</linearGradient>
<linearGradient id="paint19_linear" x1="492.067" y1="560.188" x2="492.067" y2="529.942" gradientUnits="userSpaceOnUse">
<stop stop-color="#E5E6E7"/>
<stop offset="1" stop-color="#BCBDBF"/>
</linearGradient>
<clipPath id="clip0">
<rect width="707" height="660" fill="white"/>
</clipPath>
</defs>
</svg>
