<svg width="494" height="519" viewBox="0 0 494 519" fill="none" xmlns="http://www.w3.org/2000/svg">
<g clip-path="url(#clip0)">
<path d="M476.569 275.03C486.195 275.03 493.999 267.178 493.999 257.491C493.999 247.805 486.195 239.952 476.569 239.952C466.943 239.952 459.139 247.805 459.139 257.491C459.139 267.178 466.943 275.03 476.569 275.03Z" fill="#90CAF9"/>
<path d="M313.561 51.0426C327.296 51.0426 338.43 39.8353 338.43 26.0103C338.43 12.1854 327.296 0.978027 313.561 0.978027C299.826 0.978027 288.691 12.1854 288.691 26.0103C288.691 39.8353 299.826 51.0426 313.561 51.0426Z" fill="#90CAF9"/>
<path d="M382.756 85.7734H68.9486C64.4178 85.7734 60.7734 89.8397 60.7734 94.8276V313.863C60.7734 318.851 64.4178 322.917 68.9486 322.917H382.756C387.286 322.917 390.931 318.851 390.931 313.863V94.8276C390.882 89.8397 387.237 85.7734 382.756 85.7734Z" fill="#193FF6"/>
<path d="M222.337 144.493H169.231C163.258 144.493 158.426 139.66 158.426 133.633C158.426 127.66 163.258 122.773 169.231 122.773H222.337C228.31 122.773 233.143 127.606 233.143 133.633C233.143 139.606 228.31 144.493 222.337 144.493Z" fill="#EDEDEF"/>
<path d="M173.413 182.014H112.054C106.081 182.014 101.248 177.182 101.248 171.154C101.248 165.181 106.081 160.294 112.054 160.294H173.413C179.386 160.294 184.218 165.127 184.218 171.154C184.164 177.127 179.331 182.014 173.413 182.014Z" fill="#42A5F5"/>
<path d="M339.299 217.852H111.999C106.026 217.852 101.193 213.02 101.193 206.992C101.193 201.019 106.026 196.132 111.999 196.132H339.299C345.272 196.132 350.105 200.965 350.105 206.992C350.105 213.02 345.272 217.852 339.299 217.852Z" fill="#4DD0E1"/>
<path d="M219.024 256.242H157.665C151.692 256.242 146.859 251.41 146.859 245.382C146.859 239.409 151.692 234.522 157.665 234.522H219.024C224.997 234.522 229.83 239.355 229.83 245.382C229.83 251.41 224.997 256.242 219.024 256.242Z" fill="#42A5F5"/>
<path d="M365.853 256.242H263.009C257.036 256.242 252.203 251.41 252.203 245.382C252.203 239.409 257.036 234.522 263.009 234.522H365.853C371.826 234.522 376.659 239.355 376.659 245.382C376.604 251.41 371.826 256.242 365.853 256.242Z" fill="#EDEDEF"/>
<path d="M131.927 144.493H111.999C106.026 144.493 101.193 139.66 101.193 133.633C101.193 127.66 106.026 122.773 111.999 122.773H131.927C137.9 122.773 142.733 127.606 142.733 133.633C142.733 139.606 137.9 144.493 131.927 144.493Z" fill="#4DD0E1"/>
<g opacity="0.08">
<g opacity="0.08">
<g opacity="0.08">
<path opacity="0.08" d="M246.229 510.529L248.51 280.406L246.663 280.243L244.383 510.529H246.229Z" fill="#2B2F42"/>
</g>
<g opacity="0.08">
<path opacity="0.08" d="M261.542 499.56H113.738L113.629 497.714H261.379L261.542 499.56Z" fill="#2B2F42"/>
</g>
<g opacity="0.08">
<path opacity="0.08" d="M261.868 462.528H114.118L113.955 460.736H261.76L261.868 462.528Z" fill="#2B2F42"/>
</g>
<g opacity="0.08">
<path opacity="0.08" d="M262.247 425.549H114.443L114.334 423.703H262.139L262.247 425.549Z" fill="#2B2F42"/>
</g>
<g opacity="0.08">
<path opacity="0.08" d="M262.628 388.571H114.823L114.715 386.725H262.465L262.628 388.571Z" fill="#2B2F42"/>
</g>
<g opacity="0.08">
<path opacity="0.08" d="M263.008 351.539H115.204L115.041 349.692H262.846L263.008 351.539Z" fill="#2B2F42"/>
</g>
<g opacity="0.08">
<path opacity="0.08" d="M263.333 314.561H115.583L115.42 312.714H263.225L263.333 314.561Z" fill="#2B2F42"/>
</g>
</g>
<g opacity="0.08">
<path opacity="0.08" d="M127.856 510.529L130.137 280.406L128.29 280.243L126.01 510.529H127.856Z" fill="#2B2F42"/>
</g>
</g>
<path d="M243.626 267.008L223.227 510.395L225.066 510.549L245.465 267.163L243.626 267.008Z" fill="#0962E2"/>
<path d="M242.375 484.465H94.5703V486.311H242.375V484.465Z" fill="#0962E2"/>
<path d="M245.416 447.487H97.6113V449.333H245.416V447.487Z" fill="#0962E2"/>
<path d="M248.512 410.509H100.707V412.355H248.512V410.509Z" fill="#0962E2"/>
<path d="M251.605 373.476H103.801V375.322H251.605V373.476Z" fill="#0962E2"/>
<path d="M254.701 336.498H106.896V338.344H254.701V336.498Z" fill="#0962E2"/>
<path d="M257.742 299.465H109.938V301.311H257.742V299.465Z" fill="#0962E2"/>
<path d="M125.26 267.017L104.861 510.404L106.701 510.558L127.1 267.171L125.26 267.017Z" fill="#0962E2"/>
<path d="M361.725 349.313L302.756 362.399L294.23 323.411L353.2 310.325L361.725 349.313Z" fill="#C9CDD3"/>
<path d="M393.49 511.67L398.974 497.66C398.974 497.66 362.919 445.587 362.485 443.523C362.05 441.46 350.158 405.676 350.158 405.676C348.584 421.043 338.755 447.433 338.755 447.433C346.14 462.148 346.52 473.442 344.674 481.587C342.828 489.787 338.755 494.674 337.398 496.52C334.683 500.212 337.398 519 337.398 519H319.859L329.85 513.516C329.85 513.516 329.416 505.697 324.583 474.094C322.031 457.152 320.456 442.763 319.968 430.274V430.22C319.588 419.414 320.022 410.02 321.379 401.604C322.628 393.893 324.855 382.599 326.972 372.173C328.493 364.571 330.013 357.458 331.045 352.516C331.262 351.593 331.425 350.779 331.588 350.019C332.185 347.304 332.511 345.675 332.511 345.675C332.511 345.675 336.095 339.702 341.145 333.837C349.996 323.575 363.408 313.692 370.358 336.715C371.01 338.833 371.607 341.059 372.204 343.34C381.544 379.721 383.336 432.337 383.336 432.337C383.336 432.337 391.101 436.247 396.802 452.265C399.517 459.867 400.169 467.415 400.114 473.225C400.06 479.741 399.083 484.14 399.083 484.14L405.924 495.814L393.49 511.67Z" fill="#30303F"/>
<path d="M337.344 351.159L327.027 372.119C328.548 364.517 330.068 357.403 331.1 352.462C331.317 351.539 331.48 350.725 331.643 349.964L337.344 351.159Z" fill="#191923"/>
<path d="M316.928 243.428C316.928 243.428 317.688 256.405 323.77 260.098C329.851 263.79 331.969 262.704 331.969 262.704C331.969 262.704 333.652 271.881 334.086 271.881C334.521 271.881 337.887 268.351 338.811 267.591C339.734 266.831 337.616 251.247 337.616 251.247C337.616 251.247 342.34 251.681 342.177 245.274C342.014 238.866 336.096 246.36 336.096 246.36L332.729 244.785L316.928 243.428Z" fill="#DB7767"/>
<path d="M332.729 244.785C332.729 244.785 323.444 250.595 311.769 246.143C300.095 241.69 307.371 230.721 318.285 228.386C329.2 226.052 335.01 228.386 339.245 230.667C339.245 230.667 345.924 226.377 348.693 232.025C351.408 237.672 353.526 252.821 338.322 257.165L337.562 251.138C337.562 251.138 341.091 250.921 341.906 247.554C342.72 244.188 339.082 242.83 336.747 246.414C336.747 246.468 334.793 247.229 332.729 244.785Z" fill="#242477"/>
<path d="M274.844 305.71C274.844 305.71 267.405 304.189 264.255 299.791C261.106 295.447 272.292 297.836 274.844 301.04C277.342 304.298 274.844 305.71 274.844 305.71Z" fill="#DB7767"/>
<path d="M375.244 342.634C375.244 342.634 374.158 342.905 372.312 343.34C366.339 344.697 352.493 347.847 342.176 350.182C337.397 351.213 333.325 352.082 331.153 352.516C330.393 352.679 329.85 352.734 329.578 352.788C326.7 353.005 328.221 349.367 328.221 349.367L322.573 326.181L275.387 305.764V303.266L283.586 304.895C283.586 304.895 292.708 300.986 302.754 304.081C312.799 307.176 317.361 308.099 318.935 301.692C320.51 295.284 329.415 276.225 334.139 271.935C338.863 267.646 338.863 267.646 338.863 267.646C338.863 267.646 348.583 273.238 356.348 281.275C364.113 289.311 365.905 291.809 366.393 293.655C366.828 295.501 363.896 306.47 363.896 306.47C363.896 306.47 370.303 333.077 372.584 337.204C374.756 341.276 375.244 342.634 375.244 342.634Z" fill="white"/>
<path d="M276.148 303.049L253.613 293.601L263.007 270.958L285.542 280.406L276.148 303.049Z" fill="#C9CDD3"/>
<path d="M310.411 354.145C310.411 354.145 313.778 349.639 317.579 352.082C321.434 354.526 319.099 359.738 319.099 359.738C319.099 359.738 312.366 360.987 310.411 360.824C308.511 360.716 310.411 354.145 310.411 354.145Z" fill="#DB7767"/>
<path d="M337.343 351.159C332.565 352.191 333.271 352.028 331.099 352.462C330.339 352.625 329.796 352.679 329.524 352.734C326.646 352.951 328.167 349.313 328.167 349.313L322.52 326.127L330.502 328.624C330.502 328.624 338.484 305.221 338.918 302.723C339.19 301.203 340.33 319.339 341.144 333.783C341.633 341.602 337.235 349.367 337.343 351.159Z" fill="#EDEDEF"/>
<path d="M363.843 306.361L356.295 281.166C364.06 289.202 365.852 291.7 366.34 293.546C366.775 295.393 363.843 306.361 363.843 306.361Z" fill="#EDEDEF"/>
<path d="M338.756 447.432C346.141 462.148 346.521 473.442 344.675 481.587C346.575 465.569 333.489 445.369 335.335 442.383C337.181 439.396 344.458 390.146 344.458 390.146L350.159 405.676C348.53 421.097 338.756 447.432 338.756 447.432Z" fill="#191923"/>
<path d="M331.969 262.65L335.335 261.347L333.489 270.143L331.969 262.65Z" fill="#B75046"/>
<path d="M229.287 405.459C229.287 405.459 212.889 409.368 212.4 408.228C211.966 407.088 210.337 393.784 210.337 393.784C210.337 393.784 208.816 392.861 206.807 390.743C204.472 388.245 201.486 384.064 199.64 377.711C196.219 366.037 195.784 348.606 195.784 348.606C181.666 344.697 165.919 332.534 165.919 332.534C165.919 332.534 163.204 358.218 160.435 368.209C159.729 370.707 158.535 375.268 157.068 380.643C152.779 396.553 146.426 420.12 145.394 422.889C144.036 426.581 144.254 436.627 144.254 436.627L150.878 440.319L137.195 443.523C137.195 443.523 137.901 437.333 138.552 431.36C139.204 425.387 132.851 415.07 131.928 402.689C131.71 399.811 132.036 396.933 132.633 394.164C134.643 385.205 139.91 377.928 139.91 377.928C139.91 377.928 131.493 360.715 130.353 342.362C129.213 324.009 132.416 297.619 132.416 297.619L136.054 292.786L174.227 290.994L179.712 290.723C179.712 290.723 197.956 316.298 208.002 331.448C211.749 337.041 214.355 341.222 214.464 342.09C214.898 345.294 214.898 386.834 214.898 389.331C214.898 391.829 217.613 402.201 217.613 402.201L229.287 405.459Z" fill="#30303F"/>
<path d="M180.688 298.596L156.742 293.058L174.987 287.03L180.688 298.596Z" fill="#191923"/>
<path d="M207.947 331.502L172.326 293.004L174.172 291.049L179.657 290.777C179.657 290.777 197.901 316.407 207.947 331.502Z" fill="#191923"/>
<path d="M234.717 142.647C234.717 149.271 229.233 190.376 228.093 193.091C227.55 194.394 218.753 203.3 209.196 213.237C209.142 213.291 209.088 213.345 209.033 213.399C208.979 213.454 208.979 213.454 208.979 213.508C198.065 224.857 186.227 237.509 184.761 241.527C182.046 249.075 183.621 291.754 183.621 291.754L172.327 293.058L132.308 297.727L135.023 281.437C135.023 281.437 126.823 277.528 126.606 275.464C126.497 274.65 127.258 269.6 128.398 263.301C130.19 253.744 133.068 241.255 135.783 235.825C140.344 226.812 157.34 220.676 157.34 220.676L160.109 216.549L165.539 217.2L172.707 218.069C172.707 218.069 178.354 219.59 183.404 214.703C183.675 214.431 183.947 214.16 184.273 213.834C189.54 207.915 203.44 198.195 208.925 193.2C214.409 188.15 217.613 182.666 218.753 170.285C219.893 157.905 228.581 152.421 230.373 149.651C232.219 146.773 234.717 136.022 234.717 142.647Z" fill="white"/>
<path d="M179.114 200.911C176.127 211.771 169.828 211.336 168.96 211.228H168.851C168.851 211.228 172.218 217.581 172.815 218.015C173.086 218.232 170.806 218.667 167.928 219.101C163.855 219.807 158.588 220.513 157.448 220.567L156.579 210.033L152.615 181.417L171.403 180.439C171.349 180.494 182.263 189.182 179.114 200.911Z" fill="#DB7767"/>
<path d="M167.874 219.155C167.059 218.558 166.299 217.906 165.593 217.2C162.824 214.431 161.141 211.282 161.141 211.282H168.797C168.797 211.282 172.164 217.635 172.761 218.069C173.032 218.232 170.752 218.667 167.874 219.155Z" fill="#B75046"/>
<path d="M165.051 190.811C165.051 190.811 177.051 184.24 174.01 176.15C174.01 176.15 177.648 172.783 173.25 167.462C168.852 162.086 143.276 176.312 145.72 185.055C145.72 185.055 139.041 189.127 142.245 200.639C145.448 212.096 153.213 214.322 158.969 213.236C164.725 212.15 168.852 211.336 167.005 197.489C167.005 197.489 166.734 198.738 164.453 199.118C162.173 199.499 158.969 195.209 159.403 192.005C159.892 188.693 163.15 187.444 165.051 190.811Z" fill="#242477"/>
<path d="M184.815 241.472C182.1 249.02 183.675 291.7 183.675 291.7L172.38 293.003C171.837 284.369 170.208 254.667 172.543 246.305C175.258 236.477 203.06 219.59 209.087 213.454C198.064 224.857 186.227 237.454 184.815 241.472Z" fill="#EDEDEF"/>
<path d="M165.865 332.533C165.865 332.533 163.15 358.217 160.38 368.209C159.674 370.706 158.48 375.268 157.014 380.643C159.077 364.951 150.552 320.153 153.756 323.14C156.959 326.126 165.865 332.533 165.865 332.533Z" fill="#191923"/>
<path d="M206.808 390.743C204.473 388.245 201.487 384.064 199.64 377.711C196.22 366.037 195.785 348.606 195.785 348.606C195.785 348.606 201.324 350.67 203.061 350.67C204.745 350.67 202.464 362.724 203.876 375.105C204.745 383.576 206.808 388.517 206.808 390.743Z" fill="#191923"/>
<path d="M143.601 383.63C143.601 383.63 135.674 389.168 132.633 394.218C134.642 385.259 139.909 377.982 139.909 377.982L143.601 383.63Z" fill="#191923"/>
<path d="M139.856 250.215L135.077 281.383C135.077 281.383 126.878 277.474 126.661 275.41C126.552 274.596 127.312 269.546 128.453 263.247V263.193L139.856 250.215Z" fill="#EDEDEF"/>
<path d="M183.405 214.703C182.645 215.517 175.64 222.685 170.481 220.621C169.558 220.241 168.69 219.753 167.875 219.155C170.753 218.667 173.034 218.232 172.762 218.069C172.762 218.015 178.409 219.535 183.405 214.703Z" fill="#EDEDEF"/>
<path d="M234.717 142.647C234.717 142.647 236.781 135.316 235.858 130.701C234.935 126.139 232.654 135.913 232.654 135.913C232.654 135.913 229.613 135.588 229.613 138.031C229.668 140.529 234.717 142.647 234.717 142.647Z" fill="#DB7767"/>
<path d="M11.6534 267.102C18.0711 267.102 23.2736 261.876 23.2736 255.428C23.2736 248.98 18.0711 243.753 11.6534 243.753C5.23574 243.753 0.0332031 248.98 0.0332031 255.428C0.0332031 261.876 5.23574 267.102 11.6534 267.102Z" fill="#90CAF9"/>
</g>
<defs>
<clipPath id="clip0">
<rect width="494" height="519" fill="white"/>
</clipPath>
</defs>
</svg>
