<svg width="577" height="544" viewBox="0 0 577 544" fill="none" xmlns="http://www.w3.org/2000/svg">
<path d="M326.032 456.979C326.032 456.979 197.296 619.794 89.0004 498.5C-19.295 377.206 201.371 435.265 59.9163 279.61C-81.5381 123.955 58.9592 42.1466 167.221 97.955C275.483 153.763 325.724 100.801 395.379 21.2013C465.035 -58.3987 598.305 106.329 513.752 188.156C429.199 269.982 629.727 282.251 561.79 367.238C493.854 452.225 480.94 327.346 326.032 456.979Z" fill="#F5F5F5"/>
<path d="M375.165 191.447L232.378 180.797C222.525 180.062 215.12 171.414 215.859 161.505L219.875 107.668C223.574 58.0843 266.557 20.8959 315.822 24.5707C365.088 28.2456 402.078 71.3993 398.379 120.984L394.364 174.82C393.624 184.729 385.059 192.185 375.165 191.447ZM252.916 146.21L360.027 154.2L362.706 118.281C364.924 88.5553 342.746 62.656 313.187 60.4511C283.628 58.2462 257.854 80.5687 255.637 110.294L252.957 146.213L252.916 146.21Z" fill="url(#paint0_linear)"/>
<path d="M199.15 141.215L413.9 157.234C443.538 159.445 465.785 185.267 463.576 214.891L450.231 393.79C448.021 423.414 422.19 445.65 392.552 443.439L177.801 427.42C148.164 425.209 125.916 399.387 128.126 369.763L141.468 190.905C143.639 161.237 169.471 139.001 199.15 141.215Z" fill="url(#paint1_linear)"/>
<path d="M293.136 328.726C323.152 330.965 349.267 308.893 351.464 279.428C353.662 249.963 331.111 224.261 301.095 222.022C271.079 219.783 244.964 241.855 242.766 271.32C240.569 300.785 263.12 326.487 293.136 328.726Z" fill="#376CFB"/>
<path d="M290.458 364.626C280.28 363.867 272.61 355.203 273.348 345.3L276.026 309.399C276.765 299.496 285.635 292.066 295.814 292.825C305.993 293.585 313.663 302.248 312.924 312.152L310.246 348.052C309.507 357.956 300.637 365.385 290.458 364.626Z" fill="#376CFB"/>
<defs>
<linearGradient id="paint0_linear" x1="315.822" y1="24.5707" x2="303.772" y2="186.122" gradientUnits="userSpaceOnUse">
<stop stop-color="#2C9AFF"/>
<stop offset="1" stop-color="#1139A5" stop-opacity="0.9"/>
</linearGradient>
<linearGradient id="paint1_linear" x1="306.525" y1="149.224" x2="285.176" y2="435.429" gradientUnits="userSpaceOnUse">
<stop stop-color="#4294FF"/>
<stop offset="1" stop-color="#B9D7FF" stop-opacity="0.82"/>
</linearGradient>
</defs>
</svg>
