<svg width="775" height="597" viewBox="0 0 775 597" fill="none" xmlns="http://www.w3.org/2000/svg">
<path opacity="0.2" d="M663.918 597H28.1704C28.1704 597 -62.3738 374.826 81.1946 337.228C224.763 299.631 120.808 45.6726 342.594 10.4782C564.381 -24.7162 677.639 28.8506 740.974 169.628C796.633 293.274 789.424 510.332 663.918 597Z" fill="#FA9135"/>
<path d="M424.301 551.34V597L417.712 596.612L281.43 588.318L260.965 555.216C275.229 556.999 338.718 551.883 341.586 549.557C344.377 547.232 360.967 447.075 370.424 425.602C379.882 404.206 408.874 393.353 408.874 393.353L422.363 402.578L424.301 403.896V551.34Z" fill="url(#paint0_linear)"/>
<path d="M533.916 389.089C533.916 389.089 546.087 354.283 559.885 354.283C573.684 354.283 685.391 354.283 685.391 354.283C685.391 354.283 701.438 357.306 707.795 398.314C712.136 426.144 709.035 572.271 663.918 597H554.226" fill="url(#paint1_linear)"/>
<path d="M517.947 311.646C511.823 321.569 504.459 319.088 504.459 319.088C502.986 322.887 499.187 327.771 493.916 332.732C477.714 348.003 447.791 364.36 430.271 354.36C429.961 354.205 429.574 353.973 429.263 353.74C412.596 342.965 404.767 302.886 401.821 281.801C401.123 276.684 400.658 272.653 400.426 270.483C430.581 263.428 453.76 248.002 453.76 248.002C448.644 266.374 433.605 273.971 433.605 273.971C466.706 275.909 491.513 254.358 491.513 254.358C494.846 267.072 484.071 291.568 491.513 293.351C498.955 295.134 502.443 280.328 502.443 280.328C530.971 255.521 524.071 301.724 517.947 311.646Z" fill="url(#paint2_linear)"/>
<path d="M552.134 247.382C548.568 290.716 501.358 340.484 511.358 346.841C511.358 346.841 504.924 347.926 499.808 343.972C497.094 341.879 494.769 338.469 493.916 332.654C499.187 327.693 502.986 322.809 504.459 319.011C504.459 319.011 511.901 321.569 517.947 311.569C524.072 301.646 530.971 255.444 502.366 280.173C502.366 280.173 498.8 294.979 491.435 293.196C483.993 291.413 494.769 266.917 491.435 254.203C491.435 254.203 466.629 275.754 433.527 273.816C433.527 273.816 448.566 266.219 453.683 247.847C453.683 247.847 430.504 263.351 400.349 270.328C396.395 271.258 392.364 272.033 388.178 272.576C375.232 274.359 361.511 274.281 348.1 270.56C348.1 270.56 376.705 260.56 386.627 231.49C386.627 231.49 368.022 231.722 359.34 229.164C359.34 229.164 385.775 213.66 400.116 195.753C415.93 176.14 463.373 159.318 493.684 183.272C493.684 183.272 490.893 170.016 494.924 162.109C494.924 162.109 499.265 175.83 506.94 180.481C514.614 185.055 523.917 197.536 523.374 204.745C523.374 204.823 555.7 204.048 552.134 247.382Z" fill="url(#paint3_linear)"/>
<path d="M401.742 281.723C394.921 290.405 372.207 290.793 372.207 290.793C379.649 289.243 388.176 272.576 388.176 272.576C392.285 272.033 396.393 271.258 400.347 270.328C400.58 272.576 400.967 276.607 401.742 281.723Z" fill="url(#paint4_linear)"/>
<path d="M500.427 367.926C500.427 367.926 482.054 376.764 470.814 383.12C459.496 389.554 457.248 410.563 457.248 410.563V413.431C439.806 419.943 424.379 409.4 424.379 409.4V403.896C432.131 392.268 432.674 376.686 431.898 366.066C431.433 359.089 430.348 354.283 430.348 354.283C447.868 364.283 477.791 347.926 493.992 332.654C494.845 338.391 497.171 341.879 499.884 343.972C499.884 343.972 499.962 349.709 500.117 355.911C500.117 360.407 500.194 365.058 500.427 367.926Z" fill="url(#paint5_linear)"/>
<path d="M433.293 365.601C433.293 365.601 432.751 365.756 431.82 366.143" stroke="#252324" stroke-width="0.206" stroke-miterlimit="10"/>
<path d="M457.17 413.431V551.34H424.301V403.896V409.4C424.301 409.477 439.727 419.943 457.17 413.431Z" fill="white"/>
<path d="M574.77 579.325C573.142 589.48 564.459 597 554.149 597H417.79C417.713 596.845 417.713 596.69 417.635 596.612C416.007 591.573 415.309 586.535 415.154 581.651C414.922 573.511 416.317 565.992 417.79 560.41C419.263 554.906 420.813 551.34 420.813 551.34C420.813 551.34 422.054 551.34 424.302 551.34H457.171V410.563C466.706 396.454 496.164 399.632 496.164 399.632L518.877 382.578C518.877 382.578 558.568 398.004 566.707 410.485C573.607 421.105 582.056 533.665 574.77 579.325Z" fill="url(#paint6_linear)"/>
<path opacity="0.2" d="M457.17 551.34C468.255 551.34 479.651 551.34 488.023 551.34C510.659 551.34 513.915 537.154 513.915 537.154V448.005C513.993 448.083 505.233 545.836 457.17 551.34Z" fill="#361C28"/>
<path d="M288.252 581.728H424.301V597H294.686L288.252 581.728Z" fill="url(#paint7_linear)"/>
<path d="M294.686 597H279.88L216.623 444.982H231.43L294.686 597Z" fill="url(#paint8_linear)"/>
<path d="M279.881 597H118.173L54.916 444.982H216.624L279.881 597Z" fill="url(#paint9_linear)"/>
<path d="M415.231 581.573C415.231 581.651 415.231 581.651 415.231 581.573C415.231 581.651 415.154 581.651 415.154 581.651H344.145C349.881 528.239 417.867 560.333 417.867 560.333C416.394 565.914 414.998 573.434 415.231 581.573Z" fill="url(#paint10_linear)"/>
<path d="M615.311 597H541.512L552.21 585.217L541.512 534.131H615.311L604.614 585.217L615.311 597Z" fill="url(#paint11_linear)"/>
<path d="M567.328 505.836H554.382C552.366 505.836 550.738 507.464 550.738 509.479V534.131H571.049V509.479C570.971 507.464 569.343 505.836 567.328 505.836Z" fill="url(#paint12_linear)"/>
<path d="M595.003 460.331H572.987C569.576 460.331 566.785 463.122 566.785 466.533V534.131H601.204V466.533C601.204 463.122 598.414 460.331 595.003 460.331Z" fill="url(#paint13_linear)"/>
<path d="M628.182 486.455C628.182 497.929 618.879 507.231 607.406 507.231H601.127V494.75H607.406C611.98 494.75 615.701 491.029 615.701 486.455C615.701 483.045 618.492 480.176 621.98 480.176C625.391 480.176 628.182 483.045 628.182 486.455Z" fill="url(#paint14_linear)"/>
<path d="M167.397 532.735C173.862 532.735 179.103 527.495 179.103 521.03C179.103 514.565 173.862 509.324 167.397 509.324C160.932 509.324 155.691 514.565 155.691 521.03C155.691 527.495 160.932 532.735 167.397 532.735Z" fill="white"/>
<path opacity="0.75" d="M148.018 377.306H123.754L120.73 414.051L92.0476 377.306H14.3718C10.1857 377.306 6.69727 373.896 6.69727 369.632V304.204C6.69727 300.018 10.1082 296.53 14.3718 296.53H148.018C152.204 296.53 155.692 299.941 155.692 304.204V369.632C155.692 373.896 152.281 377.306 148.018 377.306Z" fill="white" stroke="#202337" stroke-width="2.4723" stroke-miterlimit="10"/>
<path d="M518.955 382.655L496.241 399.71C496.241 399.71 466.783 396.454 457.248 410.64C457.248 410.64 459.574 389.632 470.814 383.198C482.055 376.764 500.427 368.004 500.427 368.004C500.272 365.135 500.117 360.484 500.039 355.988C503.528 356.531 511.358 358.314 514.768 364.05C519.11 371.492 518.955 382.655 518.955 382.655Z" fill="url(#paint15_linear)"/>
<path d="M424.223 403.896C415.386 395.989 405.463 413.663 404.766 414.826C404.843 413.896 406.239 403.276 408.797 393.353C410.037 388.392 411.587 383.585 413.448 380.252C417.944 371.957 427.944 367.539 431.743 366.143C432.596 376.686 431.975 392.268 424.223 403.896Z" fill="url(#paint16_linear)"/>
<path opacity="0.2" d="M563.14 585.217L552.365 597H541.512L552.21 585.217L541.512 534.131H552.365L563.14 585.217Z" fill="#361C28"/>
<path d="M46.7767 339.399C49.7308 339.399 52.1256 337.004 52.1256 334.05C52.1256 331.095 49.7308 328.701 46.7767 328.701C43.8225 328.701 41.4277 331.095 41.4277 334.05C41.4277 337.004 43.8225 339.399 46.7767 339.399Z" fill="#202337"/>
<path d="M81.1946 339.399C84.1488 339.399 86.5436 337.004 86.5436 334.05C86.5436 331.095 84.1488 328.701 81.1946 328.701C78.2405 328.701 75.8457 331.095 75.8457 334.05C75.8457 337.004 78.2405 339.399 81.1946 339.399Z" fill="#202337"/>
<path d="M115.615 339.399C118.569 339.399 120.963 337.004 120.963 334.05C120.963 331.095 118.569 328.701 115.615 328.701C112.66 328.701 110.266 331.095 110.266 334.05C110.266 337.004 112.66 339.399 115.615 339.399Z" fill="#202337"/>
<defs>
<linearGradient id="paint0_linear" x1="342.633" y1="596.994" x2="342.633" y2="393.367" gradientUnits="userSpaceOnUse">
<stop stop-color="#EF862A"/>
<stop offset="1" stop-color="#D0524B"/>
</linearGradient>
<linearGradient id="paint1_linear" x1="533.926" y1="475.662" x2="709.215" y2="475.662" gradientUnits="userSpaceOnUse">
<stop stop-color="#191B2E"/>
<stop offset="1" stop-color="#3F435C"/>
</linearGradient>
<linearGradient id="paint2_linear" x1="461.859" y1="357.385" x2="461.859" y2="247.885" gradientUnits="userSpaceOnUse">
<stop stop-color="#FFC7BB"/>
<stop offset="1" stop-color="#DE9382"/>
</linearGradient>
<linearGradient id="paint3_linear" x1="348.108" y1="254.587" x2="552.396" y2="254.587" gradientUnits="userSpaceOnUse">
<stop stop-color="#222758"/>
<stop offset="1" stop-color="#3F435C"/>
</linearGradient>
<linearGradient id="paint4_linear" x1="372.21" y1="280.628" x2="401.723" y2="280.628" gradientUnits="userSpaceOnUse">
<stop stop-color="#191B2E"/>
<stop offset="1" stop-color="#3F435C"/>
</linearGradient>
<linearGradient id="paint5_linear" x1="462.326" y1="415.579" x2="462.326" y2="332.688" gradientUnits="userSpaceOnUse">
<stop stop-color="#ECC6BE"/>
<stop offset="1" stop-color="#DE9382"/>
</linearGradient>
<linearGradient id="paint6_linear" x1="415.194" y1="489.825" x2="577.598" y2="489.825" gradientUnits="userSpaceOnUse">
<stop stop-color="#FA8B2A"/>
<stop offset="1" stop-color="#D0524B"/>
</linearGradient>
<linearGradient id="paint7_linear" x1="288.288" y1="589.349" x2="424.275" y2="589.349" gradientUnits="userSpaceOnUse">
<stop stop-color="white"/>
<stop offset="1" stop-color="#BCBDBF"/>
</linearGradient>
<linearGradient id="paint8_linear" x1="216.619" y1="521.001" x2="294.661" y2="521.001" gradientUnits="userSpaceOnUse">
<stop stop-color="#E5E6E7"/>
<stop offset="1" stop-color="#BCBDBF"/>
</linearGradient>
<linearGradient id="paint9_linear" x1="54.9331" y1="521.001" x2="279.874" y2="521.001" gradientUnits="userSpaceOnUse">
<stop stop-color="#D6E6F7"/>
<stop offset="1" stop-color="#BCBDBF"/>
</linearGradient>
<linearGradient id="paint10_linear" x1="344.135" y1="566.254" x2="417.821" y2="566.254" gradientUnits="userSpaceOnUse">
<stop stop-color="#ECC6BE"/>
<stop offset="1" stop-color="#DE9382"/>
</linearGradient>
<linearGradient id="paint11_linear" x1="578.423" y1="597" x2="578.423" y2="534.139" gradientUnits="userSpaceOnUse">
<stop stop-color="#E5E6E7"/>
<stop offset="1" stop-color="#BCBDBF"/>
</linearGradient>
<linearGradient id="paint12_linear" x1="560.829" y1="534.139" x2="560.829" y2="505.832" gradientUnits="userSpaceOnUse">
<stop stop-color="#488330"/>
<stop offset="1" stop-color="#BED46F"/>
</linearGradient>
<linearGradient id="paint13_linear" x1="583.972" y1="534.139" x2="583.972" y2="460.312" gradientUnits="userSpaceOnUse">
<stop stop-color="#459624"/>
<stop offset="1" stop-color="#BED46F"/>
</linearGradient>
<linearGradient id="paint14_linear" x1="614.699" y1="507.232" x2="614.699" y2="480.209" gradientUnits="userSpaceOnUse">
<stop stop-color="#44852A"/>
<stop offset="1" stop-color="#BED46F"/>
</linearGradient>
<linearGradient id="paint15_linear" x1="457.165" y1="383.268" x2="518.939" y2="383.268" gradientUnits="userSpaceOnUse">
<stop stop-color="#191B2E"/>
<stop offset="1" stop-color="#3F435C"/>
</linearGradient>
<linearGradient id="paint16_linear" x1="404.835" y1="390.48" x2="432.049" y2="390.48" gradientUnits="userSpaceOnUse">
<stop stop-color="#191B2E"/>
<stop offset="1" stop-color="#3F435C"/>
</linearGradient>
</defs>
</svg>
